<svg width="1080" height="473" viewBox="0 0 1080 473" fill="none" xmlns="http://www.w3.org/2000/svg">
<path d="M103.5 472.5C70.8333 472.5 45.3333 463.333 27 445C9 426.333 7.59959e-07 401.833 7.59959e-07 371.5C7.59959e-07 344.5 5.33333 320.833 16 300.5C26.6667 280.167 40.5 264.5 57.5 253.5C74.5 242.5 92.3333 237 111 237C129.333 237 143.5 242.5 153.5 253.5C163.833 264.167 169 278 169 295C169 309 165.833 320.833 159.5 330.5C153.5 340.167 145.5 345 135.5 345C129.167 345 124 343.5 120 340.5C116.333 337.5 114.5 333.333 114.5 328C114.5 325.667 114.833 323 115.5 320C116.167 317 116.667 314.833 117 313.5C118.667 308.5 119.5 303.833 119.5 299.5C119.5 295.167 118.333 291.833 116 289.5C114 287.167 111 286 107 286C99.3333 286 92.1667 289.5 85.5 296.5C78.8333 303.167 73.5 312.333 69.5 324C65.5 335.667 63.5 348.5 63.5 362.5C63.5 401.167 80.3333 420.5 114 420.5C127.667 420.5 142.333 416 158 407C174 397.667 189.667 383.833 205 365.5C209 360.833 213.5 358.5 218.5 358.5C222.833 358.5 226.167 360.5 228.5 364.5C231.167 368.5 232.5 374 232.5 381C232.5 393.667 229.333 404 223 412C207.333 431.333 188.5 446.333 166.5 457C144.833 467.333 123.833 472.5 103.5 472.5ZM358.082 472.5C328.415 472.5 301.582 465.833 277.582 452.5C253.915 439.167 235.082 419.667 221.082 394C207.082 368 200.082 337 200.082 301C200.082 250.333 209.249 205.667 227.582 167C246.249 128.333 271.415 98.5 303.082 77.5C335.082 56.5 370.415 46 409.082 46C438.749 46 465.415 52.6666 489.082 66C513.082 79.3333 532.082 99 546.082 125C560.082 150.667 567.082 181.5 567.082 217.5C567.082 268.167 557.749 312.833 539.082 351.5C520.749 390.167 495.582 420 463.582 441C431.915 462 396.749 472.5 358.082 472.5ZM363.082 413.5C389.082 413.5 411.915 405.5 431.582 389.5C451.582 373.5 466.915 351.333 477.582 323C488.249 294.333 493.582 262 493.582 226C493.582 186.333 485.249 156.333 468.582 136C451.915 115.333 430.415 105 404.082 105C378.415 105 355.749 113 336.082 129C316.415 144.667 301.082 166.833 290.082 195.5C279.082 223.833 273.582 256.167 273.582 292.5C273.582 332.167 281.915 362.333 298.582 383C315.249 403.333 336.749 413.5 363.082 413.5ZM789.785 358.5C794.119 358.5 797.452 360.5 799.785 364.5C802.452 368.5 803.785 374 803.785 381C803.785 394.333 800.618 404.667 794.285 412C779.952 429.667 764.285 444.167 747.285 455.5C730.618 466.833 711.619 472.5 690.285 472.5C660.952 472.5 639.118 459.167 624.785 432.5C610.785 405.833 603.785 371.333 603.785 329C603.785 288.333 608.952 242 619.285 190C629.952 138 645.452 93.3333 665.785 56C686.452 18.6666 710.952 -2.86102e-05 739.285 -2.86102e-05C755.285 -2.86102e-05 767.785 7.49997 776.785 22.5C786.119 37.1667 790.785 58.3333 790.785 86C790.785 125.667 779.785 171.667 757.785 224C735.785 276.333 705.952 328.167 668.285 379.5C670.618 393.167 674.452 403 679.785 409C685.118 414.667 692.118 417.5 700.785 417.5C714.452 417.5 726.452 413.667 736.785 406C747.119 398 760.285 384.5 776.285 365.5C780.285 360.833 784.785 358.5 789.785 358.5ZM728.285 49.5C720.618 49.5 711.952 63.3333 702.285 91C692.618 118.667 684.118 153 676.785 194C669.452 235 665.452 274.333 664.785 312C688.452 273 707.285 234 721.285 195C735.285 155.667 742.285 119.833 742.285 87.5C742.285 62.1667 737.618 49.5 728.285 49.5ZM828.871 204C814.871 204 804.371 200.833 797.371 194.5C790.371 187.833 786.871 178.667 786.871 167C786.871 155.333 791.371 145.667 800.371 138C809.704 130 821.204 126 834.871 126C847.204 126 857.204 129 864.871 135C872.538 141 876.371 149.5 876.371 160.5C876.371 173.833 872.038 184.5 863.371 192.5C854.704 200.167 843.204 204 828.871 204ZM824.871 472.5C803.204 472.5 787.371 464.833 777.371 449.5C767.704 434.167 762.871 413.833 762.871 388.5C762.871 373.5 764.704 354.333 768.371 331C772.371 307.333 777.371 285.333 783.371 265C786.371 254.333 790.371 247 795.371 243C800.371 239 808.371 237 819.371 237C836.371 237 844.871 242.667 844.871 254C844.871 262.333 841.704 281.667 835.371 312C827.371 348.667 823.371 373.5 823.371 386.5C823.371 396.5 824.704 404.167 827.371 409.5C830.038 414.833 834.538 417.5 840.871 417.5C846.871 417.5 854.371 413.333 863.371 405C872.371 396.667 884.371 383.5 899.371 365.5C903.371 360.833 907.871 358.5 912.871 358.5C917.204 358.5 920.538 360.5 922.871 364.5C925.538 368.5 926.871 374 926.871 381C926.871 394.333 923.704 404.667 917.371 412C884.371 452.333 853.538 472.5 824.871 472.5ZM970.918 472.5C951.251 472.5 934.418 467.667 920.418 458C906.751 448 896.418 435 889.418 419C882.418 403 878.918 385.833 878.918 367.5C878.918 342.167 883.585 319.667 892.918 300C902.585 280 915.585 264.5 931.918 253.5C948.251 242.167 966.585 236.5 986.918 236.5C1006.58 236.5 1023.42 241.5 1037.42 251.5C1051.42 261.167 1061.92 274 1068.92 290C1075.92 306 1079.42 323.167 1079.42 341.5C1079.42 366.833 1074.58 389.5 1064.92 409.5C1055.25 429.167 1042.08 444.667 1025.42 456C1009.08 467 990.918 472.5 970.918 472.5ZM976.418 418.5C987.751 418.5 997.251 412.333 1004.92 400C1012.92 387.667 1016.92 369.667 1016.92 346C1016.92 327.667 1013.58 313.833 1006.92 304.5C1000.25 295.167 992.251 290.5 982.918 290.5C970.918 290.5 960.918 296.667 952.918 309C945.251 321 941.418 339 941.418 363C941.418 382 944.751 396 951.418 405C958.085 414 966.418 418.5 976.418 418.5Z" fill="#F6F5EA"/>
</svg>
